<?xml version="1.0" encoding="UTF-8" standalone="no"?>
<!-- Created with Inkscape (http://www.inkscape.org/) -->

<svg
   xmlns:dc="http://purl.org/dc/elements/1.1/"
   xmlns:cc="http://creativecommons.org/ns#"
   xmlns:rdf="http://www.w3.org/1999/02/22-rdf-syntax-ns#"
   xmlns:svg="http://www.w3.org/2000/svg"
   xmlns="http://www.w3.org/2000/svg"
   xmlns:sodipodi="http://sodipodi.sourceforge.net/DTD/sodipodi-0.dtd"
   xmlns:inkscape="http://www.inkscape.org/namespaces/inkscape"
   width="1098.134"
   height="316.82874"
   viewBox="0 0 290.54797 83.827603"
   version="1.1"
   id="svg8"
   inkscape:version="0.92.3 (2405546, 2018-03-11)"
   sodipodi:docname="influencias_externas.svg">
  <defs
     id="defs2" />
  <sodipodi:namedview
     id="base"
     pagecolor="#ffffff"
     bordercolor="#666666"
     borderopacity="1.0"
     inkscape:pageopacity="0.0"
     inkscape:pageshadow="2"
     inkscape:zoom="1.2909179"
     inkscape:cx="596.54729"
     inkscape:cy="88.696856"
     inkscape:document-units="mm"
     inkscape:current-layer="layer1"
     showgrid="false"
     showguides="false"
     inkscape:window-width="1853"
     inkscape:window-height="1025"
     inkscape:window-x="67"
     inkscape:window-y="27"
     inkscape:window-maximized="1"
     fit-margin-top="0"
     fit-margin-left="0"
     fit-margin-right="0"
     fit-margin-bottom="0"
     units="px" />
  <metadata
     id="metadata5">
    <rdf:RDF>
      <cc:Work
         rdf:about="">
        <dc:format>image/svg+xml</dc:format>
        <dc:type
           rdf:resource="http://purl.org/dc/dcmitype/StillImage" />
        <dc:title></dc:title>
      </cc:Work>
    </rdf:RDF>
  </metadata>
  <g
     inkscape:label="Camada 1"
     inkscape:groupmode="layer"
     id="layer1"
     transform="translate(-1.1358788,-150.85773)">
    <text
       xml:space="preserve"
       style="font-style:normal;font-weight:normal;font-size:10.58333302px;line-height:1.25;font-family:sans-serif;letter-spacing:0px;word-spacing:0px;fill:#808080;fill-opacity:1;stroke:none;stroke-width:0.26458332;"
       x="203.52527"
       y="177.82013"
       id="telurica"
       inkscape:label="#telurica"><tspan
         sodipodi:role="line"
         x="203.52527"
         y="177.82013"
         style="font-style:normal;font-variant:normal;font-weight:normal;font-stretch:normal;font-family:Madelican;-inkscape-font-specification:Madelican;fill:#808080;stroke-width:0.26458332;"
         id="tspan43">Energia Telúrica</tspan></text>
    <text
       xml:space="preserve"
       style="font-style:normal;font-weight:normal;font-size:14.8173008px;line-height:1.25;font-family:sans-serif;letter-spacing:0px;word-spacing:0px;fill:#808080;fill-opacity:1;stroke:none;stroke-width:0.3704325;"
       x="2.5155048"
       y="169.47321"
       id="pessoas"><tspan
         sodipodi:role="line"
         x="2.5155048"
         y="169.47321"
         style="font-style:normal;font-variant:normal;font-weight:normal;font-stretch:normal;font-size:10.58333302px;font-family:Madelican;-inkscape-font-specification:Madelican;fill:#808080;stroke-width:0.3704325;"
         id="tspan425">Energia de Pessoas</tspan></text>
    <text
       id="profissional"
       y="162.12679"
       x="96.935043"
       style="font-style:normal;font-weight:normal;font-size:14.8173008px;line-height:1.25;font-family:sans-serif;letter-spacing:0px;word-spacing:0px;fill:#808080;fill-opacity:1;stroke:none;stroke-width:0.3704325;"
       xml:space="preserve"><tspan
         id="tspan573"
         style="font-style:normal;font-variant:normal;font-weight:normal;font-stretch:normal;font-size:10.58333302px;font-family:Madelican;-inkscape-font-specification:Madelican;fill:#808080;stroke-width:0.3704325;"
         y="162.12679"
         x="96.935043"
         sodipodi:role="line">Ambiente Profissional</tspan></text>
    <text
       xml:space="preserve"
       style="font-style:normal;font-weight:normal;font-size:14.8173008px;line-height:1.25;font-family:sans-serif;letter-spacing:0px;word-spacing:0px;fill:#808080;fill-opacity:1;stroke:none;stroke-width:0.3704325;"
       x="6.7751079"
       y="228.10571"
       id="familiar"><tspan
         sodipodi:role="line"
         x="6.7751079"
         y="228.10571"
         style="font-style:normal;font-variant:normal;font-weight:normal;font-stretch:normal;font-size:10.58333302px;font-family:Madelican;-inkscape-font-specification:Madelican;fill:#808080;stroke-width:0.3704325;"
         id="tspan625">Ambiente Familiar</tspan></text>
    <text
       id="sff"
       y="233.65181"
       x="118.8877"
       style="font-style:normal;font-weight:normal;font-size:14.8173008px;line-height:1.25;font-family:sans-serif;letter-spacing:0px;word-spacing:0px;fill:#808080;fill-opacity:1;stroke:none;stroke-width:0.3704325;"
       xml:space="preserve"><tspan
         id="tspan698"
         style="font-style:normal;font-variant:normal;font-weight:normal;font-stretch:normal;font-size:10.58333302px;font-family:Madelican;-inkscape-font-specification:Madelican;fill:#808080;stroke-width:0.3704325;"
         y="233.65181"
         x="118.8877"
         sodipodi:role="line">S.F.F.</tspan></text>
    <text
       xml:space="preserve"
       style="font-style:normal;font-weight:normal;font-size:14.8173008px;line-height:1.25;font-family:sans-serif;letter-spacing:0px;word-spacing:0px;fill:#808080;fill-opacity:1;stroke:none;stroke-width:0.3704325;"
       x="231.75681"
       y="204.25014"
       id="outra_externa"><tspan
         sodipodi:role="line"
         x="231.75681"
         y="204.25014"
         style="font-style:normal;font-variant:normal;font-weight:normal;font-stretch:normal;font-size:10.58333302px;font-family:Madelican;-inkscape-font-specification:Madelican;fill:#808080;stroke-width:0.3704325;"
         id="tspan723">Outra</tspan><tspan
         sodipodi:role="line"
         x="231.75681"
         y="224.04414"
         style="font-style:normal;font-variant:normal;font-weight:normal;font-stretch:normal;font-size:10.58333302px;font-family:Madelican;-inkscape-font-specification:Madelican;fill:#808080;stroke-width:0.3704325;"
         id="tspan725" /></text>
    <text
       xml:space="preserve"
       style="font-style:normal;font-weight:normal;font-size:14.8173008px;line-height:1.25;font-family:sans-serif;letter-spacing:0px;word-spacing:0px;fill:#808080;fill-opacity:1;stroke:none;stroke-width:0.3704325;"
       x="0.64428431"
       y="202.55557"
       id="relacionamento"
       inkscape:label="#relacionamento"><tspan
         sodipodi:role="line"
         x="0.64428431"
         y="202.55557"
         style="font-style:normal;font-variant:normal;font-weight:normal;font-stretch:normal;font-size:10.58333302px;font-family:Madelican;-inkscape-font-specification:Madelican;fill:#808080;stroke-width:0.3704325;"
         id="tspan733">Relacionamento</tspan><tspan
         sodipodi:role="line"
         x="0.64428431"
         y="222.34958"
         style="font-style:normal;font-variant:normal;font-weight:normal;font-stretch:normal;font-size:10.58333302px;font-family:Madelican;-inkscape-font-specification:Madelican;fill:#808080;stroke-width:0.3704325;"
         id="tspan735" /></text>
    <g
       aria-label="Influências Externas"
       transform="translate(0,-1.5875)"
       style="font-style:normal;font-weight:normal;font-size:10.58333302px;line-height:1.25;font-family:sans-serif;letter-spacing:0px;word-spacing:0px;fill:#000000;fill-opacity:1;stroke:none;stroke-width:0.26458332"
       id="text921">
      <path
         d="m 91.199064,176.12965 c -10.009436,1.31599 -6.463385,7.42388 -4.119547,4.65468 -1.337237,0.90286 -3.54077,-2.68089 3.345424,-4.47275 -2.911088,1.11642 -1.754985,7.10112 -1.588105,9.91744 0.319857,5.62045 0.03471,10.56797 -4.09746,10.28948 1.815262,-2.1606 2.462102,-5.87155 2.473188,-8.93016 -0.0026,-1.03484 -0.10744,-1.99221 -0.333891,-2.76603 -0.511155,-1.75604 -1.590615,-2.43183 -2.756397,-2.26869 -2.11378,0.29099 -4.360605,3.10098 -4.074846,7.56551 -3.507992,2.27978 -3.217789,6.05487 -1.311674,7.70607 1.872062,1.61151 4.470554,0.36368 5.627228,-0.89415 6.587061,0.911 5.906299,-7.60734 5.638094,-11.08779 -0.384752,-5.01352 -0.769592,-9.15186 1.197986,-9.71361 z M 78.98403,197.53636 c -1.693963,-1.61274 -1.618509,-4.68869 1.14519,-6.69155 0.250562,1.81772 1.224034,4.70677 3.542795,5.85918 -1.295264,1.42153 -3.592158,1.87655 -4.687985,0.83237 z m 4.964549,-1.24885 c -1.742184,-0.5929 -3.348989,-3.58965 -3.399234,-5.74808 1.036475,-0.65512 3.428227,-1.38102 4.98316,-1.44398 -1.023409,-0.34146 -3.461357,-0.0789 -5.036836,0.78719 -0.27234,-2.74649 1.058869,-5.85262 3.271421,-6.51433 3.602806,-0.55925 2.457308,10.74928 0.181489,12.9192 z"
         style="font-style:normal;font-variant:normal;font-weight:normal;font-stretch:normal;font-size:16.93333244px;font-family:Madelican;-inkscape-font-specification:Madelican"
         id="path242"
         inkscape:connector-curvature="0" />
      <path
         d="m 98.022088,192.46783 c -0.990744,-0.28879 1.703514,-4.41684 -0.312407,-5.48277 -0.557014,-0.29795 -2.156773,2.21141 -2.887237,3.85693 0.173124,-0.71326 1.393521,-3.07967 -0.369715,-3.33149 0.427583,0.32654 -0.664955,3.35083 -0.922385,5.13168 -0.102667,0.73573 0.353236,1.35073 1.035868,1.3278 -0.859756,-0.73604 2.170294,-6.46471 2.743382,-6.01027 0.418137,0.31964 -0.461442,2.45709 -0.603461,3.8517 -0.06462,0.60426 0.519172,1.34156 1.237282,1.43861 0.997901,0.12029 2.263255,-2.65483 2.818075,-4.13903 l -0.36762,0.0574 c -1.053448,2.52445 -1.897472,3.44291 -2.371782,3.29942 z"
         style="font-style:normal;font-variant:normal;font-weight:normal;font-stretch:normal;font-size:16.93333244px;font-family:Madelican;-inkscape-font-specification:Madelican"
         id="path244"
         inkscape:connector-curvature="0" />
      <path
         d="m 104.12238,179.92855 c -1.33734,1.36703 -2.68907,5.08564 -3.44701,8.28841 -0.67178,2.89203 -0.842064,5.12978 -0.750818,6.72655 0.129178,2.30031 0.868578,3.34946 1.760808,3.28794 1.3968,-0.0913 1.25227,-4.5811 -0.22345,-6.65478 2.0162,1.39786 3.14536,-0.63476 4.25094,-3.05606 l -0.36919,0.0461 c -1.35172,2.58538 -2.31781,3.78935 -4.15659,2.14434 0.0667,-0.46662 0.17129,-0.96298 0.31077,-1.38038 2.39365,-1.24907 5.08886,-5.48556 5.55553,-7.75202 0.5323,-2.54129 -1.38546,-3.21819 -2.93099,-1.65015 z m -2.52008,17.70501 c -0.61635,-0.19795 -0.93114,-3.44996 -0.55984,-5.94614 1.29524,1.02967 1.69512,6.29587 0.55984,5.94614 z m 4.7824,-15.53799 c -0.51178,1.63881 -2.35269,5.11026 -4.73609,6.5747 0.41948,-2.11057 1.85737,-6.20658 3.23266,-7.80333 1.20812,-1.40088 2.20392,-1.03372 1.50343,1.22863 z"
         style="font-style:normal;font-variant:normal;font-weight:normal;font-stretch:normal;font-size:16.93333244px;font-family:Madelican;-inkscape-font-specification:Madelican"
         id="path246"
         inkscape:connector-curvature="0" />
      <path
         d="m 112.7182,175.92324 c -0.41066,-0.34758 -1.23293,-0.4191 -1.94925,0.12178 -1.1868,0.88963 -2.48374,3.42035 -3.62276,6.26702 -0.96282,2.38751 -1.56209,4.59547 -1.75577,6.31184 -0.20146,1.64237 0.20901,3.41163 1.48613,3.46027 1.51905,0.0565 2.37019,-2.12809 3.33467,-4.02526 l -0.37003,0.0389 c -0.77532,1.56136 -1.66405,3.30923 -2.65423,3.22211 -0.90623,-0.0793 -1.09034,-1.98876 -0.84049,-3.01268 3.83351,-2.83895 8.15501,-10.84219 6.37173,-12.38398 z m -0.8042,0.73302 c 2.32757,-0.63544 -1.27729,7.69983 -5.46272,11.06629 0.92715,-4.22943 3.65191,-10.57663 5.46272,-11.06629 z"
         style="font-style:normal;font-variant:normal;font-weight:normal;font-stretch:normal;font-size:16.93333244px;font-family:Madelican;-inkscape-font-specification:Madelican"
         id="path248"
         inkscape:connector-curvature="0" />
      <path
         d="m 113.58217,190.88043 c -0.52186,-0.27884 0.80824,-3.53822 0.91692,-4.01228 0.18278,-0.77087 -0.30621,-1.63344 -0.99703,-1.65711 0.4475,2.11923 -2.63009,6.48298 -3.07456,5.84895 -0.45412,-0.6498 0.55324,-2.54539 0.9433,-3.89836 0.17221,-0.60399 -0.30575,-1.72477 -0.95043,-1.69431 0.75589,0.78156 -2.46878,5.36541 -0.46539,6.37182 0.58165,0.2986 1.71408,-1.01022 2.6163,-2.39057 -0.26749,0.94411 -0.21369,1.86065 0.59038,2.14016 1.00132,0.35386 2.17539,-1.04983 3.63993,-4.09669 l -0.37071,0.0318 c -1.25983,2.53136 -2.35298,3.62105 -2.84871,3.35656 z"
         style="font-style:normal;font-variant:normal;font-weight:normal;font-stretch:normal;font-size:16.93333244px;font-family:Madelican;-inkscape-font-specification:Madelican"
         id="path250"
         inkscape:connector-curvature="0" />
      <path
         d="m 118.02199,190.27318 c -0.60643,-0.26542 -0.83587,-1.20287 -0.4974,-2.31979 2.99118,-0.61761 3.61736,-3.84248 1.48017,-3.34091 -1.01994,0.23505 -2.03413,1.53048 -2.5202,2.91434 -0.64387,1.86695 0.11712,3.43127 1.412,3.58361 1.93904,0.24118 3.31524,-1.82471 4.37894,-3.97709 l -0.37946,0.0258 c -0.92001,1.82771 -2.49003,3.72444 -3.87405,3.11406 z m 1.62403,-4.39488 c 0.0984,0.34967 -0.77088,1.46122 -1.95148,1.64918 0.65804,-1.53643 1.799,-2.18578 1.95148,-1.64918 z m -0.87749,-3.64479 1.67977,1.79194 c 0.0622,0.0621 0.13047,0.0906 0.18821,0.0866 0.008,-5.6e-4 0.033,-0.002 0.0737,-0.0133 0.0407,-0.011 0.0709,-0.0545 0.0994,-0.12277 0.0148,-0.0259 0.0208,-0.0594 0.0191,-0.0842 -0.003,-0.0412 -0.0221,-0.0814 -0.0502,-0.12918 l -1.55314,-2.12375 c -0.0832,-0.12694 -0.22081,-0.20047 -0.41334,-0.22882 -0.0336,-0.006 -0.0665,-0.004 -0.1078,-9.6e-4 -0.14849,0.0101 -0.29193,0.0944 -0.42151,0.26068 l -1.35242,2.17201 c -0.0296,0.0517 -0.0428,0.10235 -0.0394,0.15184 0.002,0.0247 0.0122,0.0572 0.0403,0.105 0.0193,0.0401 0.071,0.0698 0.13815,0.0818 0.0165,-0.001 0.0336,0.006 0.0418,0.005 0.0577,-0.004 0.11324,-0.0408 0.15938,-0.0937 z"
         style="font-style:normal;font-variant:normal;font-weight:normal;font-stretch:normal;font-size:16.93333244px;font-family:Madelican;-inkscape-font-specification:Madelican"
         id="path252"
         inkscape:connector-curvature="0" />
      <path
         d="m 125.62797,189.85816 c -0.956,-0.38862 2.14643,-4.21939 0.25013,-5.48596 -0.52361,-0.35337 -2.37169,1.97916 -3.26666,3.54132 0.24518,-0.6918 1.70127,-2.92095 -0.0269,-3.35183 0.39193,0.36856 -1.00427,3.26522 -1.44254,5.01039 -0.17739,0.72136 0.2132,1.37978 0.8946,1.4268 -0.77995,-0.82013 2.82027,-6.20875 3.34386,-5.69807 0.38324,0.36074 -0.71039,2.39699 -0.99434,3.76976 -0.1261,0.59447 0.3792,1.38762 1.08362,1.55763 0.98036,0.22175 2.52297,-2.40937 3.22672,-3.82901 l -0.37156,0.0195 c -1.30618,2.40343 -2.23974,3.23073 -2.69688,3.03946 z"
         style="font-style:normal;font-variant:normal;font-weight:normal;font-stretch:normal;font-size:16.93333244px;font-family:Madelican;-inkscape-font-specification:Madelican"
         id="path254"
         inkscape:connector-curvature="0" />
      <path
         d="m 130.06493,189.7592 c -2.0474,-0.52536 -0.0932,-5.01066 1.3898,-4.74495 0.52496,0.0957 0.53541,1.01372 0.31516,1.95718 0.5361,-0.26055 1.25881,-2.77062 -0.42539,-2.88794 -1.24154,-0.0102 -2.43324,1.27672 -2.98972,2.72956 -0.7443,1.94825 0.065,3.62994 1.68025,3.67544 1.83864,0.0452 3.04816,-1.85473 4.1614,-3.89162 l -0.3718,0.0143 c -1.28707,2.25043 -2.56488,3.44966 -3.7597,3.14805 z"
         style="font-style:normal;font-variant:normal;font-weight:normal;font-stretch:normal;font-size:16.93333244px;font-family:Madelican;-inkscape-font-specification:Madelican"
         id="path256"
         inkscape:connector-curvature="0" />
      <path
         d="m 137.6872,186.50699 c -0.97774,1.70656 -2.3074,3.54709 -3.07437,3.03925 -0.88476,-0.57898 1.05862,-5.30694 1.71216,-5.59825 -0.16028,-0.1113 -1.32504,-0.35155 -2.08873,1.61369 -0.65587,1.68099 -1.3196,3.96601 -0.0695,4.59263 1.43419,0.70416 2.8759,-1.85912 3.89241,-3.65777 z m -0.3051,-5.26865 c 0.47106,-0.89827 -0.21818,-0.99472 -0.63867,-0.65205 -0.29884,0.25653 -0.59003,0.78581 -1.11946,2.25646 0.60882,-0.11635 1.2873,-0.69786 1.75813,-1.60441 z"
         style="font-style:normal;font-variant:normal;font-weight:normal;font-stretch:normal;font-size:16.93333244px;font-family:Madelican;-inkscape-font-specification:Madelican"
         id="path258"
         inkscape:connector-curvature="0" />
      <path
         d="m 142.73384,189.2427 c -1.25351,0.21061 -0.60301,-4.53004 0.96254,-5.38247 0.0146,-0.11601 -1.36973,-0.325 -2.14767,1.15961 -0.51574,-0.6945 -1.1745,-1.03108 -2.20183,-0.64223 -1.77534,0.66565 -2.9025,5.58772 -0.8017,5.61139 1.07526,0.0156 1.77619,-1.12048 2.39908,-2.47852 -0.0305,1.67917 0.48615,2.43153 1.075,2.53771 1.23597,0.23622 2.67868,-2.57404 3.39669,-3.67728 l -0.37202,0.006 c -1.20722,2.03737 -2.02968,2.81982 -2.31009,2.86573 z m -3.66288,0.0266 c -1.55013,-0.23111 0.72318,-6.37089 2.31887,-3.84993 -0.19201,0.90449 -1.37386,3.99165 -2.31887,3.84993 z"
         style="font-style:normal;font-variant:normal;font-weight:normal;font-stretch:normal;font-size:16.93333244px;font-family:Madelican;-inkscape-font-specification:Madelican"
         id="path260"
         inkscape:connector-curvature="0" />
      <path
         d="m 147.79589,189.83834 c 0.70119,-0.65491 1.26811,-2.11978 1.17479,-3.08694 -0.11885,-1.26475 -1.00491,-1.81655 -1.7352,-2.91444 0.23858,-0.48841 0.84737,-1.73841 0.24316,-1.99324 -0.62074,-0.2548 -1.55169,1.12001 -0.78816,2.28397 -0.29593,0.70352 -0.9384,1.70556 -1.30927,2.19429 -0.94231,0.1098 -1.79072,1.42653 -1.56454,2.62487 0.24292,1.28099 1.53347,1.56721 2.73232,1.54774 2.45555,-0.0474 3.4368,-1.14117 5.16581,-4.13025 l -0.37207,9.1e-4 c -1.44106,2.40133 -2.51362,3.34654 -3.54684,3.47309 z m -0.79294,-6.41422 c -0.20794,-0.50385 0.46876,-1.03468 0,0 z m -2.30344,4.75989 c 0.20502,-0.68677 0.79835,-1.49851 1.01267,-1.76362 0.42028,-0.57154 0.88962,-1.36644 1.20232,-1.97906 0.71307,0.81681 1.34447,2.04723 0.67031,3.61159 -1.24143,2.88866 -3.45113,2.04244 -2.8853,0.13109 z"
         style="font-style:normal;font-variant:normal;font-weight:normal;font-stretch:normal;font-size:16.93333244px;font-family:Madelican;-inkscape-font-specification:Madelican"
         id="path262"
         inkscape:connector-curvature="0" />
      <path
         d="m 166.69957,193.7243 c 0.6032,0.0215 1.23561,-0.0799 1.8816,-0.32989 -0.45062,0.108 -0.88236,0.15049 -1.28725,0.13602 -1.70217,-0.0608 -2.93834,-1.12265 -3.11862,-2.32876 0.27946,0.0514 0.55981,0.0779 0.84075,0.088 3.29692,0.11783 6.82792,-2.37868 8.21292,-5.48139 0.34175,-0.7655 0.50703,-1.45457 0.52859,-2.05776 0.0679,-1.90048 -1.29161,-2.98326 -3.07641,-3.04704 -1.26423,-0.0452 -2.73712,0.42341 -4.07338,1.46776 -2.04276,1.59824 -3.57059,4.53038 -3.65859,6.99274 -0.007,0.20657 0.002,0.41374 0.0112,0.61264 -0.84605,-0.6342 -1.20016,-1.60658 -1.16059,-2.71382 0.10306,-2.88377 2.87715,-6.65663 6.57838,-7.6661 0.48603,0.52205 1.06739,0.69175 1.59622,0.71065 0.12394,0.004 0.23992,3e-4 0.35619,-0.0121 0.48958,-0.0404 0.77141,-0.28683 0.78086,-0.55124 0.0124,-0.34704 -0.4453,-0.73571 -1.48643,-0.77292 -0.21484,-0.008 -0.46331,-10e-6 -0.72891,0.0236 -0.18739,-0.31281 -0.26499,-0.68789 -0.25052,-1.09278 0.0245,-0.68582 0.31639,-1.44483 0.80303,-2.09759 1.28929,1.19609 2.59835,2.30188 4.46578,2.36862 l 0.24819,6e-4 c 1.56435,-0.0186 2.45294,-1.03754 2.49162,-2.11998 0.026,-0.72714 -0.3355,-1.49295 -1.12843,-1.99288 -0.68759,-0.43825 -1.57202,-0.69324 -2.52226,-0.7272 -1.39644,-0.0499 -2.91801,0.39213 -4.06482,1.45979 -1.45189,-1.27636 -2.88048,-1.81555 -4.14471,-1.86073 -2.62762,-0.0939 -4.56179,1.93844 -4.62942,3.83065 -0.0227,0.63625 0.16995,1.26365 0.62293,1.78452 -0.17794,-0.34557 -0.25525,-0.72891 -0.24108,-1.12554 0.065,-1.81785 2.0738,-3.8558 4.65184,-3.76366 1.09071,0.039 2.28352,0.46218 3.47337,1.43134 -0.63893,0.7466 -1.01963,1.67618 -1.05064,2.54379 -0.0189,0.52883 0.095,1.04585 0.36088,1.4773 -4.10435,0.94543 -6.53933,3.56384 -7.38251,6.32188 -0.15967,0.53207 -0.25293,1.05824 -0.27124,1.57055 -0.0644,1.80132 0.78814,3.41203 2.78806,4.1702 0.40691,1.57824 1.83992,2.68846 3.5834,2.75077 z m -1.22225,-3.30345 c -0.49577,-0.0177 -0.98919,-0.10154 -1.47139,-0.26769 -0.009,-0.20717 -0.01,-0.41403 -0.003,-0.62061 0.0821,-2.2971 1.22598,-4.90374 3.02499,-6.62653 1.2678,-1.21226 2.67606,-1.72453 3.8494,-1.6826 1.46254,0.0523 2.54644,0.97627 2.49181,2.50492 -0.0219,0.61146 -0.22933,1.32384 -0.66315,2.11914 -1.32656,2.39327 -4.29567,4.67821 -7.22902,4.57337 z m 4.86448,-10.63962 -0.0909,-0.003 c -0.55362,-0.0198 -0.89269,-0.25529 -1.13674,-0.60322 0.27445,-0.0398 0.51467,-0.0478 0.72124,-0.0404 0.6693,0.0239 1.0007,0.2426 0.9942,0.42439 -0.004,0.12394 -0.17352,0.22545 -0.48781,0.2225 z m 3.69861,-2.0934 c -1.80133,-0.0644 -3.07852,-1.13593 -4.33239,-2.39695 0.88829,-1.01071 2.33048,-1.54659 3.66082,-1.49905 0.65277,0.0233 1.26747,0.18595 1.78597,0.49405 0.7289,0.43972 1.07681,1.12231 1.05407,1.75856 -0.0292,0.81803 -0.66815,1.56463 -1.90376,1.64458 z"
         style="font-style:normal;font-variant:normal;font-weight:normal;font-stretch:normal;font-size:16.93333244px;font-family:Madelican;-inkscape-font-specification:Madelican"
         id="path264"
         inkscape:connector-curvature="0" />
      <path
         d="m 177.38857,187.45828 c 0.71073,-0.90863 1.31126,-1.5093 1.79436,-1.81902 0.49084,-0.30096 0.91478,-0.3244 1.27233,-0.0786 -0.13379,-0.38107 -0.31651,-0.64091 -0.55641,-0.78003 -0.2399,-0.13913 -0.4457,-0.16016 -0.61637,-0.0796 -0.16294,0.0893 -0.37326,0.2751 -0.61397,0.55013 -0.24947,0.28277 -0.52677,0.61353 -0.83241,1.00051 -0.15307,0.19762 -0.31439,0.39473 -0.48448,0.59958 -0.005,-0.32338 -0.0143,-0.70504 -0.0455,-1.13774 -0.0317,-0.42445 -0.0711,-0.72512 -0.13459,-0.90302 -0.0965,-0.17995 -0.31323,-0.29278 -0.65004,-0.3385 -0.33733,-0.0375 -0.65245,-0.0321 -0.93661,0.008 -0.0418,0.006 -0.14278,0.16512 -0.2865,0.47929 -0.20245,0.45965 -0.58425,1.14015 -1.14593,2.04973 -0.0376,0.0722 -0.0417,0.13825 -0.0118,0.18981 0.0299,0.0516 0.0784,0.0711 0.15424,0.051 0.0753,-0.0119 0.15417,-0.0816 0.23662,-0.20902 0.18396,-0.29511 0.34989,-0.56649 0.4988,-0.83064 0.16746,-0.29613 0.31483,-0.53553 0.45089,-0.72591 0.12729,-0.18265 0.24896,-0.27452 0.35624,-0.26788 0.0898,0.0221 0.1641,0.15928 0.22252,0.41971 0.0584,0.26042 0.1148,0.55386 0.15161,0.89579 0.0368,0.34192 0.0586,0.65807 0.0743,0.9407 0.0156,0.28263 0.0214,0.45695 0.0168,0.53122 -0.72666,1.03191 -1.37977,1.67903 -1.95985,1.9496 -0.58008,0.27058 -1.08143,0.20638 -1.51231,-0.1931 5.9e-4,0.1243 0.0889,0.30374 0.25714,0.52955 0.15949,0.23355 0.38034,0.41291 0.64551,0.54532 0.19448,0.07 0.44716,0.003 0.7498,-0.20207 0.30264,-0.20493 0.61813,-0.48361 0.94699,-0.8443 0.32886,-0.36069 0.62521,-0.73169 0.88959,-1.12123 0.0213,0.3244 0.0689,0.62558 0.12633,0.90251 0.0393,0.16812 0.0873,0.32849 0.14416,0.48112 0.14927,0.3986 0.41503,0.65531 0.81377,0.77113 0.36778,0.0808 0.72877,0.004 1.08297,-0.23113 0.3542,-0.23486 0.71453,-0.56875 1.08202,-1.01818 0.36749,-0.44943 0.75455,-0.94734 1.15396,-1.51077 0.15409,-0.21412 0.30768,-0.41999 0.47002,-0.63361 l -0.37961,-0.0235 c -0.01,0.0242 -0.0273,0.0397 -0.0454,0.0635 -0.29015,0.40451 -0.60557,0.81574 -0.94626,1.23369 -0.3412,0.4262 -0.6778,0.77813 -1.00205,1.06456 -0.33251,0.28591 -0.63004,0.40831 -0.88484,0.37595 -0.22128,-0.0386 -0.37924,-0.29687 -0.48163,-0.78369 -0.0957,-0.46155 -0.12283,-1.09282 -0.0645,-1.90105 z"
         style="font-style:normal;font-variant:normal;font-weight:normal;font-stretch:normal;font-size:16.93333244px;font-family:Madelican;-inkscape-font-specification:Madelican"
         id="path266"
         inkscape:connector-curvature="0" />
      <path
         d="m 185.82654,177.34258 -1.89167,3.46178 -1.60756,-0.12366 -0.26444,0.52697 1.59931,0.12303 c -1.40338,2.82764 -2.98241,5.78275 -3.27793,7.4683 -0.23718,1.35834 0.27013,2.20175 0.97847,2.37234 1.15731,0.26317 2.51376,-1.4154 3.91966,-3.41358 l -0.37097,-0.0285 c -1.40781,1.91511 -2.52898,3.01471 -3.19103,2.67354 -1.33931,-0.7001 1.54418,-6.05924 3.0877,-8.98391 l 1.75658,0.12684 0.25493,-0.51112 -1.73058,-0.14142 2.71733,-4.81631 c -0.4141,0.10082 -1.64941,0.63604 -1.9798,1.26574 z"
         style="font-style:normal;font-variant:normal;font-weight:normal;font-stretch:normal;font-size:16.93333244px;font-family:Madelican;-inkscape-font-specification:Madelican"
         id="path268"
         inkscape:connector-curvature="0" />
      <path
         d="m 186.05117,190.68399 c -0.55648,-0.35853 -0.63385,-1.32054 -0.12199,-2.36939 3.05135,-0.13384 4.18263,-3.218 1.99286,-3.06285 -1.04434,0.0698 -2.25172,1.18735 -2.95178,2.47625 -0.93269,1.74073 -0.43028,3.40619 0.82387,3.76262 1.87597,0.5466 3.56332,-1.27401 4.95592,-3.22975 l -0.37874,-0.0349 c -1.19908,1.65806 -3.05087,3.28084 -4.32014,2.45804 z m 2.30257,-4.08052 c 0.0415,0.36087 -0.99354,1.31996 -2.18901,1.31769 0.8941,-1.41216 2.12384,-1.87171 2.18901,-1.31769 z"
         style="font-style:normal;font-variant:normal;font-weight:normal;font-stretch:normal;font-size:16.93333244px;font-family:Madelican;-inkscape-font-specification:Madelican"
         id="path270"
         inkscape:connector-curvature="0" />
      <path
         d="m 192.87399,191.47441 c -0.58723,-0.54148 0.74946,-1.96988 1.06212,-3.5403 0.2291,-1.13058 -0.69187,-1.81008 -1.30234,-2.22106 0.49854,-0.86676 0.80626,-1.7387 0.27982,-2.15672 -0.9536,-0.75813 -2.3302,1.45631 -0.90556,2.53458 -0.52576,0.81372 -1.00903,1.47418 -1.57821,2.1581 -0.21993,0.24949 -0.0749,0.58231 0.36966,0.0423 0.23283,-0.28963 1.17991,-1.5129 1.47541,-1.98677 0.60014,0.50135 0.73814,0.75014 0.66537,1.24115 -0.11667,0.80223 -0.68585,1.48615 -1.17266,2.68714 -0.39198,0.95384 -0.0331,1.81874 0.68483,2.01732 1.20404,0.3873 2.49473,-0.92985 4.52735,-3.27735 l -0.36967,-0.0423 c -1.64229,1.91776 -3.06511,3.15323 -3.73612,2.54391 z m -0.50707,-5.97495 c -0.53466,-0.41897 -0.22811,-1.20781 0.0453,-1.343 0.449,-0.21498 0.50344,0.47366 -0.0453,1.343 z"
         style="font-style:normal;font-variant:normal;font-weight:normal;font-stretch:normal;font-size:16.93333244px;font-family:Madelican;-inkscape-font-specification:Madelican"
         id="path272"
         inkscape:connector-curvature="0" />
      <path
         d="m 199.80964,192.30921 c -0.86151,-0.56814 2.93038,-3.71796 1.3185,-5.33103 -0.44437,-0.44897 -2.71304,1.47695 -3.89632,2.83385 0.37578,-0.63047 2.23981,-2.5317 0.62927,-3.29234 0.31226,0.43811 -1.62363,3.00567 -2.39483,4.63139 -0.31508,0.67272 -0.0608,1.39482 0.59819,1.57424 -0.60443,-0.95687 3.98038,-5.53708 4.39395,-4.93384 0.30527,0.42875 -1.16558,2.21171 -1.71259,3.5024 -0.23996,0.55832 0.10042,1.435 0.75797,1.73952 0.91803,0.40926 2.94556,-1.86925 3.91343,-3.12379 l -0.3682,-0.0536 c -1.75112,2.10147 -2.82848,2.73016 -3.23937,2.45316 z"
         style="font-style:normal;font-variant:normal;font-weight:normal;font-stretch:normal;font-size:16.93333244px;font-family:Madelican;-inkscape-font-specification:Madelican"
         id="path274"
         inkscape:connector-curvature="0" />
      <path
         d="m 207.53943,193.58556 c -1.26981,-0.0568 0.35992,-4.5558 2.06938,-5.06114 0.0386,-0.11036 -1.27118,-0.60489 -2.34304,0.68367 -0.35871,-0.78717 -0.93228,-1.25436 -2.0183,-1.08948 -1.87542,0.27874 -4.00925,4.8552 -1.96009,5.31869 1.04812,0.2406 1.9716,-0.72328 2.86532,-1.92059 -0.38183,1.63546 -0.0343,2.47941 0.51918,2.70667 1.15901,0.49004 3.15872,-1.95538 4.09203,-2.88362 l -0.36503,-0.0721 c -1.60745,1.73907 -2.57565,2.33173 -2.85945,2.31785 z m -3.58708,-0.74179 c -1.46725,-0.55089 2.04251,-6.07777 3.07433,-3.27834 -0.37732,0.84414 -2.18002,3.615 -3.07433,3.27834 z"
         style="font-style:normal;font-variant:normal;font-weight:normal;font-stretch:normal;font-size:16.93333244px;font-family:Madelican;-inkscape-font-specification:Madelican"
         id="path276"
         inkscape:connector-curvature="0" />
      <path
         d="m 212.31953,195.40183 c 0.86206,-0.42123 1.83258,-1.65627 2.02617,-2.60844 0.2562,-1.24422 -0.42976,-2.03102 -0.80707,-3.29447 0.37098,-0.3973 1.3187,-1.41462 0.81543,-1.83501 -0.5191,-0.42518 -1.81139,0.61729 -1.42162,1.95365 -0.48873,0.58623 -1.39614,1.35658 -1.89373,1.71549 -0.93322,-0.17057 -2.1296,0.8405 -2.26374,2.0526 -0.14231,1.29603 1.00812,1.94714 2.16026,2.2791 2.36206,0.67281 3.62028,-0.0862 6.14781,-2.43903 l -0.35607,-0.10794 c -2.08029,1.87494 -3.38238,2.46518 -4.40744,2.28405 z m 1.11747,-6.36571 c -0.0515,-0.54264 0.75084,-0.85237 0,0 z m -3.59471,3.87821 c 0.3969,-0.59679 1.20167,-1.19954 1.48415,-1.39039 0.56905,-0.42365 1.25033,-1.04655 1.7285,-1.54094 0.44304,0.98963 0.68702,2.35091 -0.41514,3.64973 -2.03191,2.39935 -3.89755,0.94393 -2.79751,-0.7184 z"
         style="font-style:normal;font-variant:normal;font-weight:normal;font-stretch:normal;font-size:16.93333244px;font-family:Madelican;-inkscape-font-specification:Madelican"
         id="path278"
         inkscape:connector-curvature="0" />
    </g>
    <ellipse
       style="opacity:1;fill:none;fill-opacity:1;stroke:#000000;stroke-width:0.99953008;stroke-linejoin:round;stroke-miterlimit:4;stroke-dasharray:none;stroke-dashoffset:0;stroke-opacity:1"
       id="path923"
       transform="scale(-1)"
       ry="10.091334"
       rx="70.309311"
       cy="-199.89406"
       cx="-149.44586" />
    <path
       id="path1098"
       d="m 75.64603,206.20319 c -0.11119,-0.11119 -0.16096,-0.73766 -0.16096,-2.02626 0,-1.27441 -0.0503,-1.91561 -0.15875,-2.02407 -0.2802,-0.2802 -0.89101,-0.17505 -3.68842,0.635 -2.65301,0.76824 -3.29486,0.9034 -3.29813,0.69453 -0.0497,-3.17773 0.01,-6.84098 0.11253,-6.94383 0.088,-0.0881 1.17224,0.1663 3.24704,0.76175 4.00135,1.14835 3.78573,1.2234 3.78573,-1.3177 0,-1.86405 0.0501,-2.19058 0.33594,-2.19058 0.0964,0 1.14799,1.14598 2.33679,2.54661 2.94674,3.47185 2.88371,3.39061 2.88205,3.71432 -9.2e-4,0.17826 -0.83271,1.26777 -2.18899,2.86719 -2.75263,3.24612 -2.99425,3.49363 -3.20483,3.28304 z"
       style="fill:#000000;stroke-width:0.13229167"
       inkscape:connector-curvature="0" />
    <path
       inkscape:connector-curvature="0"
       style="fill:#000000;stroke-width:0.13229167"
       d="m 221.53587,193.84753 c 0.11119,0.11119 0.16096,0.73766 0.16096,2.02626 0,1.27441 0.0503,1.91561 0.15875,2.02407 0.2802,0.2802 0.89101,0.17505 3.68842,-0.635 2.65301,-0.76824 3.29486,-0.9034 3.29813,-0.69453 0.0497,3.17773 -0.01,6.84098 -0.11253,6.94383 -0.088,0.0881 -1.17224,-0.1663 -3.24704,-0.76175 -4.00135,-1.14835 -3.78573,-1.2234 -3.78573,1.3177 0,1.86405 -0.0501,2.19058 -0.33594,2.19058 -0.0964,0 -1.14799,-1.14598 -2.33679,-2.54661 -2.94674,-3.47185 -2.88371,-3.39061 -2.88205,-3.71432 9.2e-4,-0.17826 0.83271,-1.26777 2.18899,-2.86719 2.75263,-3.24612 2.99425,-3.49363 3.20483,-3.28304 z"
       id="path1100" />
    <path
       id="path1104"
       d="m 207.74417,203.02019 c 2e-5,0.15723 -0.4078,0.63543 -1.31897,1.54659 -0.90115,0.90116 -1.31898,1.39012 -1.31898,1.5435 0,0.39625 0.50623,0.75383 3.05712,2.15909 2.41918,1.33274 2.96859,1.69106 2.82324,1.84102 -2.21186,2.28214 -4.84438,4.83024 -4.98961,4.83046 -0.12451,7e-5 -0.7113,-0.94649 -1.75736,-2.83465 -2.01738,-3.64138 -1.81184,-3.54198 -3.60867,-1.74515 -1.31808,1.31808 -1.5844,1.51355 -1.78652,1.31143 -0.0682,-0.0682 -0.001,-1.62208 0.14837,-3.4531 0.3713,-4.53862 0.35843,-4.4366 0.5885,-4.66432 0.12669,-0.12541 1.48526,-0.30763 3.57525,-0.47956 4.24176,-0.34895 4.58763,-0.35312 4.58763,-0.0553 z"
       style="fill:#000000;stroke-width:0.13229167"
       inkscape:connector-curvature="0" />
    <path
       id="path1108"
       d="m 165.13653,208.62206 c -0.11115,0.11119 -0.73767,0.16095 -2.02625,0.16094 -1.27443,2e-5 -1.91563,0.0503 -2.02409,0.15877 -0.28018,0.28019 -0.17508,0.891 0.635,3.68842 0.76824,2.653 0.90337,3.29487 0.69453,3.29813 -3.17772,0.0497 -6.84098,-0.01 -6.94383,-0.11253 -0.0881,-0.088 0.16631,-1.17224 0.76177,-3.24705 1.14833,-4.00134 1.22339,-3.78573 -1.31771,-3.78573 -1.86404,-1e-5 -2.19058,-0.0501 -2.19058,-0.33594 -2e-5,-0.0964 1.14599,-1.14797 2.54662,-2.3368 3.47184,-2.94674 3.39059,-2.8837 3.7143,-2.88203 0.17829,8.8e-4 1.26775,0.83274 2.86719,2.18898 3.24612,2.75264 3.49364,2.99425 3.28304,3.20485 z"
       style="fill:#000000;stroke-width:0.13229167"
       inkscape:connector-curvature="0" />
    <path
       inkscape:connector-curvature="0"
       style="fill:#000000;stroke-width:0.13229167"
       d="m 98.924028,217.10345 c -0.157205,-2e-5 -0.635393,-0.40783 -1.546578,-1.31896 -0.90117,-0.90114 -1.390116,-1.31898 -1.543516,-1.31899 -0.396241,2e-5 -0.753827,0.50624 -2.15909,3.05713 -1.332726,2.41919 -1.691044,2.96861 -1.841018,2.82325 -2.282137,-2.21186 -4.830241,-4.84439 -4.830459,-4.9896 -6.9e-5,-0.12452 0.946486,-0.71131 2.834658,-1.75737 3.641383,-2.01737 3.54199,-1.81184 1.745149,-3.60868 -1.318071,-1.31808 -1.513546,-1.58441 -1.311427,-1.78652 0.06815,-0.0682 1.622082,-9.9e-4 3.453103,0.14837 4.538627,0.37132 4.436596,0.35842 4.664307,0.5885 0.125441,0.12668 0.307594,1.48526 0.479572,3.57526 0.348941,4.24175 0.353123,4.58762 0.05528,4.58762 z"
       id="path1114" />
    <path
       inkscape:connector-curvature="0"
       style="fill:#000000;stroke-width:0.08903186"
       d="m 91.438592,174.46187 c 0.03753,-0.0142 0.630329,-0.0785 1.316838,-0.1417 0.686453,-0.0632 1.279232,-0.12936 1.317312,-0.14687 0.08657,-0.0407 -0.113773,-0.88306 -0.328014,-1.37726 -0.528187,-1.21856 -1.747661,-1.9762 -3.567689,-2.2164 l -0.799344,-0.10555 0.330941,-0.13744 c 0.745518,-0.30958 1.971668,-0.55511 2.808102,-0.56238 1.174978,-0.0102 1.796771,0.20135 2.52913,0.86071 0.703018,0.63287 1.068915,1.24313 1.455994,2.42844 l 0.302942,0.92771 0.376885,-0.088 c 0.207299,-0.0483 0.634616,-0.15938 0.94975,-0.24621 0.314954,-0.0875 0.572816,-0.14095 0.572787,-0.11942 -1.1e-5,0.0549 -2.907628,5.10779 -2.981676,5.18242 -0.0378,0.0378 -0.870748,-0.74929 -2.206428,-2.08499 -1.180149,-1.18015 -2.114815,-2.15774 -2.077061,-2.17237 z"
       id="path1116" />
    <text
       id="provocada"
       y="223.08501"
       x="207.36342"
       style="font-style:normal;font-weight:normal;font-size:10.58333302px;line-height:1.25;font-family:sans-serif;letter-spacing:0px;word-spacing:0px;fill:#808080;fill-opacity:1;stroke:none;stroke-width:0.26458332;"
       xml:space="preserve"
       inkscape:label="#provocada"><tspan
         id="tspan357"
         style="font-style:normal;font-variant:normal;font-weight:normal;font-stretch:normal;font-family:Madelican;-inkscape-font-specification:Madelican;fill:#808080;stroke-width:0.26458332;"
         y="223.08501"
         x="207.36342"
         sodipodi:role="line">Energia Provocada</tspan></text>
    <path
       id="path1495"
       d="m 227.87133,184.5412 c 0.0309,0.026 0.38314,0.50662 0.78114,1.06956 0.39795,0.5629 0.75163,1.04318 0.78585,1.06739 0.0786,0.0546 0.70786,-0.54007 1.02871,-0.97271 0.79122,-1.0667 0.83761,-2.50164 0.13562,-4.19793 l -0.30828,-0.74501 0.28448,0.21793 c 0.64086,0.49085 1.46661,1.42996 1.8911,2.15071 0.59632,1.01247 0.724,1.65674 0.51917,2.62067 -0.19657,0.92526 -0.54214,1.54726 -1.3751,2.47515 l -0.65197,0.72622 0.26475,0.2823 c 0.14551,0.15536 0.45535,0.4699 0.68811,0.69942 0.23325,0.229 0.40847,0.42558 0.38982,0.43635 -0.0475,0.0274 -5.87729,0.0358 -5.97895,0.008 -0.0516,-0.0138 0.21351,-1.12873 0.70241,-2.95331 0.43197,-1.61215 0.8113,-2.91037 0.8428,-2.88499 z"
       style="fill:#000000;stroke-width:0.08903186"
       inkscape:connector-curvature="0" />
    <path
       inkscape:connector-curvature="0"
       style="fill:#000000;stroke-width:0.13229167"
       d="m 159.84483,172.45174 c -0.11115,-0.11119 -0.73767,-0.16095 -2.02625,-0.16094 -1.27443,-2e-5 -1.91563,-0.0503 -2.02409,-0.15877 -0.28018,-0.28019 -0.17508,-0.891 0.635,-3.68842 0.76824,-2.653 0.90337,-3.29487 0.69453,-3.29813 -3.17772,-0.0497 -6.84098,0.01 -6.94383,0.11253 -0.0881,0.088 0.16631,1.17224 0.76177,3.24705 1.14833,4.00134 1.22339,3.78573 -1.31771,3.78573 -1.86404,1e-5 -2.19058,0.0501 -2.19058,0.33594 -2e-5,0.0964 1.14599,1.14797 2.54662,2.3368 3.47184,2.94674 3.39059,2.8837 3.7143,2.88203 0.17829,-8.8e-4 1.26775,-0.83274 2.86719,-2.18898 3.24612,-2.75264 3.49364,-2.99425 3.28304,-3.20485 z"
       id="path281" />
  </g>
</svg>
