<?xml version="1.0" encoding="UTF-8" standalone="no"?>
<!-- Created with Inkscape (http://www.inkscape.org/) -->

<svg
   xmlns:dc="http://purl.org/dc/elements/1.1/"
   xmlns:cc="http://creativecommons.org/ns#"
   xmlns:rdf="http://www.w3.org/1999/02/22-rdf-syntax-ns#"
   xmlns:svg="http://www.w3.org/2000/svg"
   xmlns="http://www.w3.org/2000/svg"
   xmlns:sodipodi="http://sodipodi.sourceforge.net/DTD/sodipodi-0.dtd"
   xmlns:inkscape="http://www.inkscape.org/namespaces/inkscape"
   width="32"
   height="32"
   viewBox="0 0 8.4666667 8.4666666"
   version="1.1"
   id="svg95"
   inkscape:version="0.92.3 (2405546, 2018-03-11)"
   sodipodi:docname="problema.svg">
  <defs
     id="defs89" />
  <sodipodi:namedview
     id="base"
     pagecolor="#ffffff"
     bordercolor="#666666"
     borderopacity="1.0"
     inkscape:pageopacity="0.0"
     inkscape:pageshadow="2"
     inkscape:zoom="3.1094737"
     inkscape:cx="-50.209712"
     inkscape:cy="68.752534"
     inkscape:document-units="mm"
     inkscape:current-layer="layer1"
     showgrid="false"
     fit-margin-top="0"
     fit-margin-left="0"
     fit-margin-right="0"
     fit-margin-bottom="0"
     units="px"
     inkscape:window-width="1853"
     inkscape:window-height="1025"
     inkscape:window-x="67"
     inkscape:window-y="27"
     inkscape:window-maximized="1" />
  <metadata
     id="metadata92">
    <rdf:RDF>
      <cc:Work
         rdf:about="">
        <dc:format>image/svg+xml</dc:format>
        <dc:type
           rdf:resource="http://purl.org/dc/dcmitype/StillImage" />
        <dc:title></dc:title>
      </cc:Work>
    </rdf:RDF>
  </metadata>
  <g
     inkscape:label="Camada 1"
     inkscape:groupmode="layer"
     id="layer1"
     transform="translate(-91.903701,-41.762798)">
    <path
       style="fill:#ff0000;stroke-width:0.00852871"
       d="m 95.925446,49.963742 c -0.26234,-0.01082 -0.528186,-0.05062 -0.79603,-0.119003 -0.0907,-0.02319 -0.166724,-0.04214 -0.168944,-0.04214 -0.0022,0 -0.0019,-0.0037 9.37e-4,-0.0084 0.0028,-0.0048 3.4e-5,-0.0067 -0.0064,-0.0037 -0.02243,0.0085 -0.26727,-0.08128 -0.471273,-0.172973 -0.209015,-0.09394 -0.575687,-0.303431 -0.575687,-0.328902 0,-0.0051 -0.0023,-0.0065 -0.0052,-0.0037 -0.0049,0.0049 -0.05069,-0.02217 -0.0628,-0.03676 -0.0023,-0.0027 -0.01826,-0.01364 -0.03528,-0.02395 -0.05168,-0.03139 -0.135069,-0.101291 -0.128579,-0.107782 0.0037,-0.0037 0.0023,-0.0052 -0.0022,-0.0037 -0.01513,0.0045 -0.04766,-0.01849 -0.04153,-0.02927 0.0035,-0.0054 0.0026,-0.0075 -7.5e-4,-0.0037 -0.0096,0.0087 -0.07394,-0.04407 -0.06713,-0.05512 0.0034,-0.0052 0.0017,-0.0067 -0.0037,-0.0036 -0.0052,0.0034 -0.0232,-0.0067 -0.04019,-0.02133 -0.02364,-0.0208 -0.02826,-0.02901 -0.01972,-0.03513 0.0082,-0.0059 0.0073,-0.0067 -0.0037,-0.0037 -0.01588,0.0052 -0.09594,-0.06287 -0.09664,-0.08197 -2.33e-4,-0.0058 -0.0046,-0.0098 -0.0096,-0.0089 -0.0052,7.49e-4 -0.05764,-0.04774 -0.116804,-0.108245 -0.08027,-0.08211 -0.106308,-0.113943 -0.102582,-0.125451 0.0037,-0.01163 0.0029,-0.01259 -0.0036,-0.0037 -0.0066,0.0089 -0.02086,-0.0037 -0.06263,-0.05392 -0.0299,-0.03601 -0.05331,-0.06936 -0.05199,-0.07406 0.0011,-0.0049 -0.0013,-0.0064 -0.006,-0.0037 -0.0092,0.0054 -0.03138,-0.02868 -0.02736,-0.04228 0.0013,-0.0049 -2.84e-4,-0.0056 -0.0037,-0.0022 -0.0075,0.0076 -0.05524,-0.05423 -0.04929,-0.06387 0.0022,-0.0037 -6.6e-5,-0.0055 -0.0052,-0.0044 -0.01571,0.0037 -0.190863,-0.254485 -0.182468,-0.269146 0.0033,-0.0052 0.0023,-0.0071 -8.82e-4,-0.0037 -0.0037,0.0037 -0.01832,-0.01198 -0.03242,-0.03409 -0.04118,-0.0649 -0.135837,-0.233811 -0.137538,-0.245402 -7.13e-4,-0.0058 -0.0055,-0.01586 -0.01081,-0.02215 -0.01678,-0.02096 -0.10847,-0.221919 -0.158972,-0.348405 -0.236772,-0.593029 -0.322221,-1.286821 -0.239492,-1.944542 0.04682,-0.372213 0.167424,-0.799057 0.315682,-1.117258 0.01638,-0.03517 0.03963,-0.08508 0.05168,-0.110873 0.01202,-0.0258 0.02604,-0.05211 0.0311,-0.05841 0.0052,-0.0065 0.0099,-0.01633 0.01082,-0.02215 0.0019,-0.01156 0.09637,-0.18051 0.137535,-0.245405 0.01409,-0.02215 0.02863,-0.03751 0.03242,-0.03409 0.0037,0.0037 0.0041,0.0019 8.82e-4,-0.0037 -0.01082,-0.01889 0.24904,-0.385875 0.269115,-0.380021 0.0044,0.0011 0.0059,-8.32e-4 0.0037,-0.0052 -0.0066,-0.0103 0.02431,-0.03719 0.03319,-0.0291 0.0037,0.0037 0.004,0.0014 7.14e-4,-0.0047 -0.0037,-0.0067 0.0089,-0.02889 0.03487,-0.05938 0.07192,-0.08432 0.260222,-0.274467 0.269932,-0.272574 0.0052,7.89e-4 0.0095,-0.003 0.0097,-0.0088 7.49e-4,-0.01913 0.08079,-0.08705 0.09664,-0.08197 0.01081,0.0037 0.01171,0.0022 0.0037,-0.0037 -0.0085,-0.0062 -0.0037,-0.01437 0.01972,-0.03513 0.01695,-0.0149 0.03508,-0.02454 0.04019,-0.02132 0.0052,0.0036 0.0067,0.0022 0.0037,-0.0037 -0.0067,-0.01082 0.0575,-0.06408 0.06646,-0.05513 0.0037,0.0037 0.0052,0.0022 0.0037,-0.0032 -0.0029,-0.0096 0.09803,-0.09377 0.163915,-0.136519 0.02085,-0.01351 0.03988,-0.02695 0.04219,-0.02989 0.0077,-0.0095 0.172545,-0.115268 0.277185,-0.177922 0.106823,-0.06395 0.346341,-0.185321 0.456284,-0.231192 0.114742,-0.04788 0.344872,-0.129536 0.368029,-0.130596 0.01245,-7.14e-4 0.02082,-0.0037 0.01871,-0.0074 -0.0022,-0.0037 -0.0022,-0.0066 9.8e-5,-0.0066 0.0023,0 0.07824,-0.01897 0.168942,-0.04214 0.273902,-0.06997 0.523939,-0.106743 0.80607,-0.118579 0.61312,-0.02572 1.182959,0.07798 1.738342,0.316345 0.124655,0.05349 0.304794,0.142129 0.345415,0.169946 0.01645,0.01126 0.0423,0.02558 0.05757,0.03184 0.01527,0.0064 0.0277,0.01394 0.0277,0.01702 0,0.0032 0.01187,0.01008 0.02635,0.01559 0.01452,0.0052 0.02395,0.01394 0.0209,0.01886 -0.0032,0.0052 -5.16e-4,0.0069 0.0053,0.0049 0.0062,-0.0022 0.03603,0.01246 0.06655,0.03279 0.0305,0.02036 0.07555,0.05049 0.10013,0.06691 0.02454,0.01648 0.04276,0.03184 0.04056,0.03408 -0.0028,0.0022 5.11e-4,0.0039 0.0067,0.0039 0.01886,0 0.05745,0.02987 0.05154,0.04004 -0.0037,0.0052 -0.0028,0.0068 9.37e-4,0.0037 0.0089,-0.0081 0.10789,0.06148 0.101748,0.0714 -0.003,0.0039 5.03e-4,0.0067 0.0067,0.0052 0.0065,-0.0011 0.01022,0.0025 0.0089,0.009 -0.0011,0.0064 0.0022,0.0087 0.0067,0.0053 0.0082,-0.0052 0.09818,0.06421 0.124299,0.09546 0.0067,0.0064 0.01202,0.01135 0.01512,0.01135 0.01425,0 0.26145,0.243254 0.36353,0.357826 0.03505,0.03947 0.07829,0.08776 0.09583,0.107278 0.01738,0.0195 0.02915,0.03796 0.02615,0.04108 -0.0045,0.0031 -0.0022,0.0053 0.0045,0.0053 0.0113,0 0.116203,0.135177 0.116203,0.150012 0,0.0063 0.0038,0.0096 0.008,0.0075 0.0082,-0.0052 0.170835,0.239367 0.172384,0.259797 0.0017,0.0091 0.0067,0.01483 0.0075,0.01275 0.0075,-0.0039 0.06369,0.09075 0.06045,0.100889 -0.0017,0.0037 0.0026,0.0066 0.007,0.0066 0.007,0 0.143517,0.266681 0.18704,0.366997 0.04109,0.09523 0.129992,0.337385 0.131614,0.35934 0.0019,0.01247 0.0066,0.02096 0.0075,0.01887 0.0097,-0.0096 0.09353,0.321247 0.12351,0.48718 0.125783,0.696087 0.06176,1.418816 -0.184839,2.081 -0.02099,0.05631 -0.04555,0.119614 -0.0552,0.140723 -0.0097,0.02111 -0.02248,0.05182 -0.0291,0.06819 -0.02558,0.06401 -0.171751,0.349721 -0.179007,0.349721 -0.007,0 -0.007,0.0028 -0.007,0.0066 0.0052,0.01014 -0.05394,0.105065 -0.06045,0.10089 -0.0051,-0.0022 -0.0075,0.0037 -0.0075,0.01214 -0.0017,0.01618 -0.07743,0.138386 -0.08955,0.143574 -0.0058,0.0016 -0.0075,0.0063 -0.0075,0.01028 0,0.01377 -0.06946,0.106303 -0.07814,0.103933 -0.007,-0.0011 -0.007,0.001 -0.0054,0.0053 0.007,0.0077 -0.0865,0.132343 -0.147906,0.201998 -0.121292,0.13759 -0.170256,0.190314 -0.256867,0.276646 -0.08814,0.08786 -0.133897,0.130232 -0.252332,0.233685 -0.01933,0.01692 -0.03947,0.03069 -0.0448,0.03069 -0.0064,0 -0.0097,0.0037 -0.0097,0.0081 0,0.01249 -0.147086,0.119683 -0.156367,0.113944 -0.0052,-0.0027 -0.0057,-8.82e-4 -0.0028,0.0037 0.0058,0.0095 -0.03336,0.0392 -0.05164,0.0392 -0.0061,0 -0.009,0.0022 -0.0067,0.004 0.0097,0.0096 -0.197516,0.140704 -0.21013,0.132908 -0.0058,-0.0037 -0.0077,-0.0022 -0.0038,0.0028 0.0048,0.007 -0.07763,0.06308 -0.09677,0.066 -0.0022,3.62e-4 -0.02069,0.01124 -0.0408,0.02409 -0.07931,0.05093 -0.341256,0.171713 -0.518651,0.239157 -0.165348,0.06287 -0.488229,0.154839 -0.517296,0.147359 -0.0082,-0.0022 -0.01306,-7.13e-4 -0.01072,0.0029 0.005,0.0077 -0.182052,0.04413 -0.324007,0.06324 -0.211128,0.02842 -0.47951,0.03959 -0.716409,0.02976 z m 0.309042,-1.389678 c 0.02455,-0.0052 0.04914,-0.0067 0.05466,-0.0032 0.0067,0.0038 0.0077,0.0022 0.0031,-0.0052 -0.0052,-0.0083 -0.0022,-0.0099 0.01149,-0.0066 0.0101,0.0023 0.01625,0.0012 0.01365,-0.0029 -0.0043,-0.0069 0.0099,-0.01098 0.03663,-0.01008 0.0057,1.94e-4 0.0089,-0.0022 0.0067,-0.0054 -0.0037,-0.0056 0.05572,-0.03109 0.06265,-0.02678 0.0021,8.82e-4 0.0054,-0.0017 0.0085,-0.0061 0.01081,-0.01678 0.119363,-0.09383 0.124717,-0.08847 0.0032,0.0032 0.0042,-1.55e-4 0.0025,-0.0071 -0.0016,-0.0069 0.0022,-0.01186 0.0079,-0.01065 0.0058,9.37e-4 0.0097,-8.82e-4 0.0085,-0.0052 -0.0037,-0.01142 0.03766,-0.06118 0.04615,-0.05596 0.0039,0.0022 0.0067,0.0016 0.0053,-0.0022 -0.0037,-0.01173 0.04948,-0.097 0.05605,-0.09044 0.0037,0.0037 0.0037,-8.33e-4 -3.2e-5,-0.0099 -0.0041,-0.01112 -0.0033,-0.01419 0.0037,-0.0099 0.0067,0.0038 0.0082,0.0012 0.0041,-0.0085 -0.0037,-0.0099 -0.0022,-0.01261 0.0041,-0.0085 0.0065,0.0037 0.0082,0.0017 0.0052,-0.0064 -0.0023,-0.0067 7.14e-4,-0.01743 0.0073,-0.02363 0.0067,-0.0063 0.01013,-0.01873 0.0079,-0.02781 -0.0024,-0.01034 -7.14e-4,-0.01439 0.005,-0.01092 0.0057,0.0037 0.0073,-7.5e-4 0.0041,-0.01277 -0.0023,-0.0101 -0.0012,-0.01632 0.0029,-0.01368 0.0041,0.0023 0.0087,-0.01483 0.0099,-0.03869 8.81e-4,-0.02388 0.0052,-0.04556 0.0085,-0.04813 0.009,-0.0067 0.008,-0.161905 -9.38e-4,-0.156299 -0.0038,0.0022 -0.0058,-0.0093 -0.0037,-0.02638 0.0022,-0.01708 1.3e-4,-0.03101 -0.0039,-0.03101 -0.0041,0 -0.0057,-0.0077 -0.0037,-0.01708 0.0022,-0.0094 5.15e-4,-0.01707 -0.0041,-0.01707 -0.0051,0 -0.0067,-0.0082 -0.0037,-0.01791 0.0023,-0.0099 0.0023,-0.01567 -2.6e-4,-0.0129 -0.0096,0.0096 -0.05971,-0.117745 -0.05093,-0.12928 0.006,-0.0079 0.0052,-0.0095 -0.0037,-0.0063 -0.01278,0.0052 -0.05273,-0.04124 -0.05273,-0.06093 0,-0.006 -0.0026,-0.0092 -0.0063,-0.0069 -0.0037,0.0022 -0.01322,-0.0067 -0.02185,-0.01959 -0.01527,-0.02277 -0.01707,-0.02706 -0.01932,-0.04467 -7.12e-4,-0.0049 -0.0052,-0.0085 -0.01066,-0.0085 -0.0067,0 -0.0065,0.0046 8.82e-4,0.01494 0.0058,0.0082 -0.0022,0.0015 -0.01782,-0.01494 -0.01568,-0.01644 -0.03055,-0.02936 -0.03309,-0.02877 -0.0022,7.14e-4 -0.01995,-0.0095 -0.03871,-0.02229 -0.01874,-0.01287 -0.05138,-0.0321 -0.07249,-0.04273 -0.02111,-0.01066 -0.04033,-0.02171 -0.04264,-0.02464 -0.0022,-0.0028 -0.0082,-0.0052 -0.01277,-0.0052 -0.02141,-7.13e-4 -0.06396,-0.01456 -0.06396,-0.02096 0,-0.0037 -0.0077,-0.0052 -0.01708,-0.0022 -0.0094,0.0022 -0.01707,7.5e-4 -0.01707,-0.0037 0,-0.0041 -0.01394,-0.0063 -0.03101,-0.0039 -0.01708,0.0023 -0.02895,2.57e-4 -0.02641,-0.0037 0.0022,-0.0038 -0.0315,-0.0075 -0.07559,-0.0075 -0.04409,0 -0.0802,0.0036 -0.0802,0.0074 0,0.0037 -0.01154,0.0055 -0.02558,0.0037 -0.01411,-0.0022 -0.02558,-7.89e-4 -0.02558,0.0022 0,0.0037 -0.01394,0.0087 -0.03095,0.01189 -0.01704,0.0034 -0.05167,0.01499 -0.07701,0.02618 -0.02532,0.01122 -0.05269,0.01826 -0.06076,0.01567 -0.01146,-0.0037 -0.01213,-0.0028 -0.0028,0.0037 0.01157,0.0082 0.0037,0.01394 -0.02885,0.02023 -0.0049,7.14e-4 -0.01573,0.01081 -0.0245,0.02196 -0.009,0.01141 -0.02129,0.01826 -0.02814,0.01559 -0.0067,-0.0023 -0.01094,-0.0022 -0.0093,0.0017 0.0037,0.0085 -0.111458,0.120005 -0.117775,0.113687 -0.0026,-0.0026 -0.0038,-9.37e-4 -0.003,0.0037 0.0037,0.01499 -0.01066,0.03849 -0.01991,0.03274 -0.0052,-0.0033 -0.0067,-0.0014 -0.0031,0.0037 0.0035,0.0052 -0.0022,0.01738 -0.01147,0.02692 -0.0096,0.0096 -0.01694,0.01946 -0.01648,0.022 0.0022,0.01053 -0.02065,0.05509 -0.02798,0.05509 -0.0043,0 -0.0061,0.0033 -0.0037,0.0069 0.0022,0.0037 -0.0037,0.03169 -0.01336,0.06182 -0.01875,0.0581 -0.03556,0.28938 -0.02096,0.289358 0.0037,-7e-6 0.0053,0.0095 0.0037,0.02108 -0.0022,0.01156 -0.001,0.01931 0.0022,0.01722 0.0078,-0.0051 0.01856,0.04587 0.01204,0.05645 -0.0022,0.004 -2.58e-4,0.0077 0.0052,0.0077 0.0052,0 0.0079,0.0052 0.0052,0.01226 -0.0022,0.0067 -0.0022,0.01347 0.0018,0.01494 0.01155,0.0052 0.07662,0.133344 0.07082,0.139814 -0.0032,0.0037 -7.89e-4,0.0037 0.0047,4.66e-4 0.0089,-0.0052 0.03124,0.02169 0.03214,0.03869 1.69e-4,0.0033 0.0037,0.0089 0.0082,0.01277 0.0047,0.004 0.0052,0.0022 7.49e-4,-0.0055 -0.0037,-0.0069 0.008,0.0022 0.02613,0.02132 0.01826,0.01874 0.0333,0.03796 0.03342,0.04264 1.26e-4,0.0049 0.0044,0.0085 0.0096,0.0085 0.01619,0 0.09731,0.06108 0.09075,0.0683 -0.0037,0.0037 -0.0022,0.0043 0.0037,0.0011 0.01198,-0.0067 0.09889,0.03204 0.09046,0.04049 -0.0036,0.0036 7.5e-4,0.0037 0.0087,3.36e-4 0.0082,-0.0033 0.01469,-0.0017 0.01469,0.0037 0,0.0052 0.0056,0.0068 0.01277,0.0041 0.0069,-0.0024 0.01277,-7.88e-4 0.01277,0.0037 0,0.005 0.0077,0.0067 0.01708,0.0039 0.0094,-0.0022 0.01707,-7.15e-4 0.01707,0.0037 0,0.0047 0.0096,0.0067 0.02132,0.0041 0.01172,-0.0022 0.02131,-7.13e-4 0.0213,0.0036 -1e-5,0.01007 0.172692,0.0054 0.228028,-0.0057 z m 0.30076,-1.731405 c 0,-0.01901 0.003,-0.03274 0.0067,-0.0305 0.0037,0.0023 0.0052,-0.02245 0.0036,-0.0548 -0.0022,-0.03244 -7.49e-4,-0.0657 0.0027,-0.07395 0.0037,-0.0082 0.0052,-0.04093 0.0048,-0.07251 -7.14e-4,-0.0316 9.37e-4,-0.06187 0.0046,-0.06728 0.0037,-0.0052 0.0052,-0.04001 0.0041,-0.07688 -7.48e-4,-0.03691 0.0012,-0.06707 0.0052,-0.06714 0.0037,-3.2e-5 0.0082,-0.0584 0.0096,-0.129649 0.0015,-0.07125 0.0052,-0.133232 0.0078,-0.137706 0.0026,-0.0045 0.0039,-0.03437 0.0033,-0.06642 -7.89e-4,-0.03204 7.15e-4,-0.06271 0.0039,-0.06808 0.0037,-0.0052 0.0052,-0.04001 0.0041,-0.07688 -7.49e-4,-0.03692 0.0012,-0.06705 0.0052,-0.06705 0.0037,7e-6 0.0054,-0.02513 0.0037,-0.05586 -0.0017,-0.03076 -1.93e-4,-0.06243 0.0032,-0.07037 0.0035,-0.0081 0.0052,-0.04035 0.0044,-0.07197 -7.12e-4,-0.0316 10e-4,-0.06197 0.0048,-0.06742 0.0037,-0.0052 0.0052,-0.03617 0.0041,-0.06823 -7.88e-4,-0.03204 7.12e-4,-0.06271 0.0039,-0.06809 0.0037,-0.0052 0.0052,-0.04001 0.0041,-0.07688 -7.88e-4,-0.03691 0.0012,-0.06707 0.0052,-0.06714 0.0037,-3.2e-5 0.0082,-0.05839 0.0096,-0.129652 0.0015,-0.07125 0.0052,-0.13323 0.0078,-0.137703 0.0026,-0.0045 0.0039,-0.03438 0.0033,-0.06642 -7.88e-4,-0.03204 7.5e-4,-0.06271 0.0039,-0.06809 0.0037,-0.0052 0.0052,-0.04001 0.0041,-0.07688 -7.9e-4,-0.0369 0.0013,-0.06705 0.0052,-0.06704 0.0037,7e-6 0.0054,-0.02513 0.0037,-0.05586 -0.0017,-0.03076 -2.57e-4,-0.06242 0.0032,-0.07037 0.0036,-0.0081 0.0052,-0.04035 0.0044,-0.07196 -7.5e-4,-0.0316 0.0011,-0.06197 0.0048,-0.06742 0.0037,-0.0052 0.0052,-0.03616 0.0041,-0.06824 -7.88e-4,-0.03204 7.13e-4,-0.06271 0.0039,-0.06809 0.0037,-0.0052 0.0052,-0.04001 0.0041,-0.07688 -7.88e-4,-0.0369 0.0013,-0.06707 0.0052,-0.06714 0.0037,-4.1e-5 0.0082,-0.05839 0.0096,-0.129649 0.0015,-0.07125 0.0052,-0.133232 0.0078,-0.137705 0.0026,-0.0045 0.0039,-0.03439 0.0033,-0.06642 -7.88e-4,-0.03204 7.5e-4,-0.06271 0.0039,-0.06809 0.0037,-0.0052 0.0052,-0.04001 0.0041,-0.07688 -7.88e-4,-0.03691 0.0013,-0.06705 0.0052,-0.06704 0.0037,9e-6 0.0054,-0.02729 0.0037,-0.06065 -0.0016,-0.03336 2.58e-4,-0.06392 0.0041,-0.0678 0.0037,-0.0037 0.0057,-0.02664 0.0038,-0.05055 -0.0022,-0.03608 -0.0052,-0.04174 -0.01494,-0.03348 -0.0093,0.0077 -0.012,0.0072 -0.01209,-0.0021 -1.3e-4,-0.0092 -0.0022,-0.009 -0.0083,8.32e-4 -0.006,0.0094 -0.0082,0.0098 -0.0084,0.0017 -6.6e-5,-0.0062 -0.0037,-0.0091 -0.0075,-0.0067 -0.0098,0.0061 -1.195809,0.0071 -1.201848,9.37e-4 -0.01319,-0.0132 -0.01783,0.0012 -0.02036,0.06357 -0.0015,0.03751 4.89e-4,0.06824 0.0045,0.06824 0.0037,-8e-6 0.0059,0.03227 0.0041,0.07167 -0.0018,0.03945 2.83e-4,0.06964 0.0042,0.06718 0.0037,-0.0022 0.0059,0.02825 0.0041,0.06824 -0.0018,0.04004 1.29e-4,0.07077 0.0037,0.06838 0.0037,-0.0022 0.0057,0.02678 0.0041,0.0648 -0.0016,0.03807 3.1e-4,0.06914 0.0038,0.06914 0.0037,-9e-6 0.0065,0.02976 0.0052,0.06608 -7.48e-4,0.03633 9.37e-4,0.07261 0.0045,0.0806 0.0035,0.0081 0.0047,0.03962 0.0031,0.07037 -0.0017,0.03076 2.57e-4,0.05587 0.0037,0.05587 0.0037,-9e-6 0.0065,0.02976 0.0052,0.06608 -7.5e-4,0.03633 0.001,0.07261 0.0045,0.0806 0.0035,0.0081 0.0047,0.03962 0.0031,0.07037 -0.0017,0.03076 2.83e-4,0.05586 0.0039,0.05586 0.0037,-10e-6 0.0057,0.03067 0.0041,0.06824 -0.0015,0.03752 4.9e-4,0.06824 0.0045,0.06824 0.0037,-10e-6 0.0059,0.03227 0.0041,0.07167 -0.0018,0.03945 2.84e-4,0.06964 0.0042,0.06718 0.0037,-0.0022 0.0059,0.02825 0.0041,0.06824 -0.0018,0.04004 1.29e-4,0.07077 0.0037,0.06838 0.0037,-0.0022 0.0057,0.02678 0.0041,0.0648 -0.0016,0.03806 3.1e-4,0.06914 0.0038,0.06914 0.0037,-7e-6 0.0065,0.02976 0.0052,0.06608 -7.48e-4,0.03633 0.001,0.07261 0.0045,0.0806 0.0035,0.0081 0.0047,0.03962 0.0031,0.07037 -0.0017,0.03076 2.59e-4,0.05586 0.0037,0.05586 0.0037,-1e-5 0.0065,0.02975 0.0052,0.06608 -7.49e-4,0.03633 0.001,0.07261 0.0045,0.0806 0.0035,0.0081 0.0047,0.03962 0.0031,0.07037 -0.0017,0.03076 2.83e-4,0.05587 0.0039,0.05586 0.0037,-10e-6 0.0057,0.03067 0.0041,0.06824 -0.0015,0.03753 4.9e-4,0.06825 0.0045,0.06824 0.0037,-7e-6 0.0059,0.03227 0.0041,0.07167 -0.0018,0.03945 2.83e-4,0.06964 0.0042,0.06718 0.0037,-0.0022 0.0059,0.02825 0.0041,0.06824 -0.0018,0.04004 1.31e-4,0.07078 0.0037,0.06839 0.0037,-0.0022 0.0057,0.02677 0.0041,0.0648 -0.0016,0.03807 3.09e-4,0.06915 0.0038,0.06914 0.0037,-5e-6 0.0065,0.02975 0.0052,0.06608 -7.13e-4,0.03633 0.001,0.07261 0.0045,0.0806 0.0035,0.0081 0.0047,0.03962 0.0031,0.07037 -0.0017,0.03076 2.59e-4,0.05587 0.0037,0.05587 0.0037,-8e-6 0.0065,0.02976 0.0052,0.06608 -7.13e-4,0.03633 10e-4,0.07261 0.0045,0.0806 0.0035,0.0081 0.0047,0.03962 0.0031,0.07037 -0.0017,0.03076 2.84e-4,0.05587 0.0039,0.05587 0.0037,-8e-6 0.0057,0.03014 0.0041,0.06698 -0.0016,0.03699 7.89e-4,0.07118 0.0056,0.07632 0.0059,0.0067 0.13563,0.0095 0.428564,0.0098 l 0.42004,4.4e-4 z"
       id="path123"
       inkscape:connector-curvature="0" />
  </g>
</svg>
